<svg width="100" height="100" viewBox="0 0 100 100" fill="none" xmlns="http://www.w3.org/2000/svg">
<g clip-path="url(#clip0)">
<path d="M99.0455 83.6748L56.0967 9.28533C54.8242 7.08123 52.5451 5.76541 50 5.76541C47.4549 5.76541 45.1758 7.08123 43.9033 9.28533L0.954492 83.6748C-0.318164 85.8789 -0.318164 88.5107 0.954492 90.7146C2.22695 92.9187 4.50605 94.2345 7.05117 94.2345H92.9488C95.4939 94.2345 97.773 92.9187 99.0455 90.7146C100.318 88.5107 100.318 85.8789 99.0455 83.6748ZM93.965 87.7814C93.8387 88.0006 93.5381 88.3681 92.949 88.3681H7.05117C6.46172 88.3681 6.16133 88.0008 6.03516 87.7814C5.90879 87.5625 5.74043 87.1185 6.03516 86.6082L48.9838 12.2185C49.2785 11.7082 49.7469 11.6318 49.9998 11.6318C50.2529 11.6318 50.7213 11.708 51.0158 12.2185L93.9648 86.6082C94.2598 87.1185 94.0914 87.5625 93.965 87.7814Z" fill="#515151" fill-opacity="0.75"/>
<path d="M52.9344 32.4404H47.0678V63.7289H52.9344V32.4404Z" fill="#515151" fill-opacity="0.75"/>
<path d="M50.001 77.4177C52.161 77.4177 53.9121 75.6667 53.9121 73.5066C53.9121 71.3466 52.161 69.5955 50.001 69.5955C47.8409 69.5955 46.0898 71.3466 46.0898 73.5066C46.0898 75.6667 47.8409 77.4177 50.001 77.4177Z" fill="#515151" fill-opacity="0.75"/>
</g>
<defs>
<clipPath id="clip0">
<rect width="100" height="100" fill="white"/>
</clipPath>
</defs>
</svg>
