<svg width="58" height="50" viewBox="0 0 208 200" fill="none" xmlns="http://www.w3.org/2000/svg">
<g filter="url(#filter0_d)">
<g clip-path="url(#clip0)">
<path d="M181.093 70.2344C179.71 69.5273 178.047 69.654 176.788 70.5628L105.118 122.273L58.9611 78.9647C57.3927 77.4936 54.9595 77.4688 53.3612 78.9068L14.8795 113.542C14.0079 114.327 13.5098 115.445 13.5098 116.618V163.922C13.5098 166.207 15.3626 168.06 17.6479 168.06H179.209C181.494 168.06 183.347 166.207 183.347 163.922V73.9183C183.347 72.3645 182.477 70.942 181.093 70.2344ZM31.6771 159.784H21.786V118.46L31.6771 109.558V159.784ZM49.5423 159.784H39.9532V102.109L49.5423 93.4786V159.784ZM67.4069 159.784H57.8179V89.2412L67.4069 98.2379V159.784ZM85.2721 159.784H75.6831V106.003L85.2721 115V159.784ZM103.322 159.784H93.5483V122.766L101.942 130.642C102.351 131.025 102.822 131.308 103.322 131.495V159.784H103.322ZM121.372 159.784H111.598V127.803L121.372 120.75V159.784V159.784ZM139.422 159.784H129.648V114.779L139.422 107.727V159.784H139.422ZM157.472 159.784H147.698V101.756L157.472 94.7035V159.784ZM175.071 159.784H165.749V88.7327L175.071 82.0067V159.784Z" fill="#039200"/>
<path d="M203.34 33.667C202.596 32.5559 201.321 31.9062 199.998 31.9409L173.775 32.6485C171.979 32.6971 170.449 33.966 170.071 35.7216C169.692 37.4777 170.562 39.2648 172.178 40.049L178.305 43.0232L105.88 94.6652L56.5285 49.9199C54.0777 47.6977 50.3446 47.6843 47.8783 49.8878L6.1585 87.154C3.49511 89.5329 3.26493 93.6203 5.64382 96.2832C8.02219 98.946 12.1091 99.1767 14.773 96.7978L52.1529 63.4085L101.051 107.743C102.277 108.853 103.832 109.418 105.395 109.418C106.705 109.418 108.02 109.021 109.148 108.217L185.466 53.8004L185.829 59.5286C185.942 61.3204 187.265 62.8023 189.032 63.1178C189.262 63.1587 189.492 63.1789 189.719 63.1789C191.239 63.1789 192.648 62.2871 193.28 60.86L203.665 37.414C204.207 36.1918 204.085 34.7776 203.34 33.667Z" fill="#039200"/>
</g>
</g>
<defs>
<filter id="filter0_d" x="0" y="0" width="208" height="208" filterUnits="userSpaceOnUse" color-interpolation-filters="sRGB">
<feFlood flood-opacity="0" result="BackgroundImageFix"/>
<feColorMatrix in="SourceAlpha" type="matrix" values="0 0 0 0 0 0 0 0 0 0 0 0 0 0 0 0 0 0 127 0"/>
<feOffset dy="4"/>
<feGaussianBlur stdDeviation="2"/>
<feColorMatrix type="matrix" values="0 0 0 0 0 0 0 0 0 0 0 0 0 0 0 0 0 0 0.25 0"/>
<feBlend mode="normal" in2="BackgroundImageFix" result="effect1_dropShadow"/>
<feBlend mode="normal" in="SourceGraphic" in2="effect1_dropShadow" result="shape"/>
</filter>
<clipPath id="clip0">
<rect x="4" width="200" height="200" fill="white"/>
</clipPath>
</defs>
</svg>
