<svg width="82" height="82" viewBox="0 0 112 112" fill="none" xmlns="http://www.w3.org/2000/svg">
<path d="M112 56C112 86.9283 86.9283 112 56 112C25.0717 112 0 86.9283 0 56C0 25.0717 25.0717 0 56 0C86.9283 0 112 25.0717 112 56Z" fill="url(#paint0_linear)"/>
<path d="M68.7319 54.2363C73.876 50.3621 77.2085 44.2063 77.2085 37.2858C77.2085 25.592 67.6946 16.0781 56 16.0781C44.3063 16.0781 34.7924 25.592 34.7924 37.2858C34.7924 44.2063 38.124 50.3621 43.2681 54.2363C29.4954 59.406 19.6661 72.7087 19.6661 88.2656H26.2286C26.2286 71.8491 39.5844 58.4943 56.0009 58.4943C72.4165 58.4943 85.7722 71.8491 85.7722 88.2656H92.3347C92.3339 72.7087 82.5055 59.406 68.7319 54.2363V54.2363ZM41.3549 37.2858C41.3549 29.21 47.9242 22.6406 56 22.6406C64.0758 22.6406 70.6451 29.21 70.6451 37.2858C70.6451 45.3616 64.0758 51.9318 56 51.9318C47.9242 51.9318 41.3549 45.3616 41.3549 37.2858V37.2858Z" fill="white"/>
<defs>
<linearGradient id="paint0_linear" x1="0" y1="56" x2="112" y2="56" gradientUnits="userSpaceOnUse">
<stop offset="0.0833333" stop-color="#039200"/>
<stop offset="1" stop-color="#009EFF"/>
</linearGradient>
</defs>
</svg>
