<svg width="35" height="35" viewBox="0 0 35 35" fill="none" xmlns="http://www.w3.org/2000/svg">
<path d="M35 17.5C35 27.1651 27.1651 35 17.5 35C7.83489 35 0 27.1651 0 17.5C0 7.83489 7.83489 0 17.5 0C27.1651 0 35 7.83489 35 17.5Z" fill="url(#paint0_linear)"/>
<path d="M21.4787 16.9489C23.0862 15.7381 24.1277 13.8145 24.1277 11.6518C24.1277 7.99751 21.1546 5.02441 17.5 5.02441C13.8457 5.02441 10.8726 7.99751 10.8726 11.6518C10.8726 13.8145 11.9138 15.7381 13.5213 16.9489C9.2173 18.5644 6.14567 22.7215 6.14567 27.583H8.19645C8.19645 22.4529 12.3701 18.2795 17.5003 18.2795C22.6302 18.2795 26.8038 22.4529 26.8038 27.583H28.8546C28.8543 22.7215 25.783 18.5644 21.4787 16.9489V16.9489ZM12.9234 11.6518C12.9234 9.12811 14.9763 7.0752 17.5 7.0752C20.0237 7.0752 22.0766 9.12811 22.0766 11.6518C22.0766 14.1755 20.0237 16.2287 17.5 16.2287C14.9763 16.2287 12.9234 14.1755 12.9234 11.6518V11.6518Z" fill="white"/>
<defs>
<linearGradient id="paint0_linear" x1="0" y1="17.5" x2="35" y2="17.5" gradientUnits="userSpaceOnUse">
<stop offset="0.0833333" stop-color="#039200"/>
<stop offset="1" stop-color="#009EFF"/>
</linearGradient>
</defs>
</svg>
